{
  "accessors": [
    {
      "bufferView": 2,
      "componentType": 5126,
      "count": 1534,
      "max": [
        1.251389980316162,
        0.9900000095367432,
        4.699709892272949
      ],
      "min": [
        -1.0,
        -0.9900000095367432,
        0.0
      ],
      "type": "VEC3"
    },
    {
      "bufferView": 2,
      "byteOffset": 18408,
      "componentType": 5126,
      "count": 1534,
      "max": [
        1.0,
        1.0,
        1.0
      ],
      "min": [
        -0.9807885885238647,
        -1.0,
        -1.0
      ],
      "type": "VEC3"
    },
    {
      "bufferView": 1,
      "componentType": 5126,
      "count": 1534,
      "max": [
        0.8831300139427185,
        0.9702399969100952
      ],
      "min": [
        0.005690000019967556,
        0.00570000009611249
      ],
      "type": "VEC2"
    },
    {
      "bufferView": 0,
      "componentType": 5125,
      "count": 3357,
      "type": "SCALAR"
    }
  ],
  "asset": {
    "extras": {
      "author": "Whitend (https://sketchfab.com/whitend.3d)",
      "license": "CC-BY-4.0 (http://creativecommons.org/licenses/by/4.0/)",
      "source": "https://sketchfab.com/3d-models/house-props-fridge-2fdaa56bbd85404cb4206dcaedc16658",
      "title": "House Props : Fridge"
    },
    "generator": "Sketchfab-12.68.0",
    "version": "2.0"
  },
  "bufferViews": [
    {
      "buffer": 0,
      "byteLength": 13428,
      "name": "floatBufferViews",
      "target": 34963
    },
    {
      "buffer": 0,
      "byteLength": 12272,
      "byteOffset": 13428,
      "byteStride": 8,
      "name": "floatBufferViews",
      "target": 34962
    },
    {
      "buffer": 0,
      "byteLength": 36816,
      "byteOffset": 25700,
      "byteStride": 12,
      "name": "floatBufferViews",
      "target": 34962
    }
  ],
  "buffers": [
    {
      "byteLength": 62516,
      "uri": "scene.bin"
    }
  ],
  "images": [
    {
      "uri": "textures/Frigo_baseColor.png"
    }
  ],
  "materials": [
    {
      "doubleSided": true,
      "name": "Frigo",
      "pbrMetallicRoughness": {
        "baseColorTexture": {
          "index": 0
        },
        "metallicFactor": 0.0,
        "roughnessFactor": 0.0
      }
    }
  ],
  "meshes": [
    {
      "name": "Fridge_0",
      "primitives": [
        {
          "attributes": {
            "NORMAL": 1,
            "POSITION": 0,
            "TEXCOORD_0": 2
          },
          "indices": 3,
          "material": 0,
          "mode": 4
        }
      ]
    }
  ],
  "nodes": [
    {
      "children": [
        1
      ],
      "matrix": [
        0.3861466944217682,
        0.0,
        0.0,
        0.0,
        0.0,
        8.574179020598831e-17,
        -0.3861466944217682,
        0.0,
        0.0,
        0.3861466944217682,
        8.574179020598831e-17,
        0.0,
        0.0,
        0.0,
        0.0,
        1.0
      ],
      "name": "Sketchfab_model"
    },
    {
      "children": [
        2
      ],
      "name": "Root"
    },
    {
      "children": [
        3
      ],
      "name": "Fridge"
    },
    {
      "mesh": 0,
      "name": "Fridge_0"
    }
  ],
  "samplers": [
    {
      "magFilter": 9729,
      "minFilter": 9987,
      "wrapS": 10497,
      "wrapT": 10497
    }
  ],
  "scene": 0,
  "scenes": [
    {
      "name": "Sketchfab_Scene",
      "nodes": [
        0
      ]
    }
  ],
  "textures": [
    {
      "sampler": 0,
      "source": 0
    }
  ]
}
