{
  "accessors": [
    {
      "bufferView": 2,
      "componentType": 5126,
      "count": 898,
      "max": [
        9.436612129211426,
        1.5886809825897217,
        1.5667020082473755
      ],
      "min": [
        8.495278358459473,
        -1.5247629880905151,
        0.5397279858589172
      ],
      "type": "VEC3"
    },
    {
      "bufferView": 2,
      "byteOffset": 10776,
      "componentType": 5126,
      "count": 898,
      "max": [
        0.18078398704528809,
        0.9734698534011841,
        0.9989296197891235
      ],
      "min": [
        -0.9983857870101929,
        -0.9734698534011841,
        -0.7984690070152283
      ],
      "type": "VEC3"
    },
    {
      "bufferView": 3,
      "componentType": 5126,
      "count": 898,
      "max": [
        0.9998836517333984,
        1.0,
        0.7917289137840271,
        1.0
      ],
      "min": [
        -0.9998447299003601,
        -1.0,
        -0.9999780058860779,
        -1.0
      ],
      "type": "VEC4"
    },
    {
      "bufferView": 1,
      "componentType": 5126,
      "count": 898,
      "max": [
        0.346341997385025,
        0.3350690007209778
      ],
      "min": [
        0.004999999888241291,
        0.004999999888241291
      ],
      "type": "VEC2"
    },
    {
      "bufferView": 0,
      "componentType": 5125,
      "count": 4320,
      "type": "SCALAR"
    },
    {
      "bufferView": 2,
      "byteOffset": 21552,
      "componentType": 5126,
      "count": 2135,
      "max": [
        29.754852294921875,
        2.021306037902832,
        6.048851013183594
      ],
      "min": [
        8.774699211120605,
        -2.0247979164123535,
        0.24563099443912506
      ],
      "type": "VEC3"
    },
    {
      "bufferView": 2,
      "byteOffset": 47172,
      "componentType": 5126,
      "count": 2135,
      "max": [
        0.9999871253967285,
        0.9999997615814209,
        0.9999954700469971
      ],
      "min": [
        -0.998212456703186,
        -0.9999997615814209,
        -0.9999940991401672
      ],
      "type": "VEC3"
    },
    {
      "bufferView": 3,
      "byteOffset": 14368,
      "componentType": 5126,
      "count": 2135,
      "max": [
        0.9999998211860657,
        1.0,
        0.9999955892562866,
        1.0
      ],
      "min": [
        -0.9999998211860657,
        -1.0,
        -0.9990565180778503,
        -1.0
      ],
      "type": "VEC4"
    },
    {
      "bufferView": 1,
      "byteOffset": 7184,
      "componentType": 5126,
      "count": 2135,
      "max": [
        0.8381869792938232,
        0.9141290187835693
      ],
      "min": [
        0.004999999888241291,
        0.004999999888241291
      ],
      "type": "VEC2"
    },
    {
      "bufferView": 0,
      "byteOffset": 17280,
      "componentType": 5125,
      "count": 10752,
      "type": "SCALAR"
    },
    {
      "bufferView": 2,
      "byteOffset": 72792,
      "componentType": 5126,
      "count": 6238,
      "max": [
        10.666654586791992,
        10.666655540466309,
        3.48899507522583
      ],
      "min": [
        -10.666655540466309,
        -10.666655540466309,
        -0.19234299659729004
      ],
      "type": "VEC3"
    },
    {
      "bufferView": 2,
      "byteOffset": 147648,
      "componentType": 5126,
      "count": 6238,
      "max": [
        0.9819022417068481,
        0.981934130191803,
        1.0
      ],
      "min": [
        -0.9818859100341797,
        -0.98190838098526,
        -1.0
      ],
      "type": "VEC3"
    },
    {
      "bufferView": 3,
      "byteOffset": 48528,
      "componentType": 5126,
      "count": 6238,
      "max": [
        1.0,
        1.0,
        0.9818789958953857,
        1.0
      ],
      "min": [
        -1.0,
        -1.0,
        -0.9818431735038757,
        -1.0
      ],
      "type": "VEC4"
    },
    {
      "bufferView": 1,
      "byteOffset": 24264,
      "componentType": 5126,
      "count": 6238,
      "max": [
        0.7074819803237915,
        0.9950000047683716
      ],
      "min": [
        0.004999999888241291,
        0.004999999888241291
      ],
      "type": "VEC2"
    },
    {
      "bufferView": 0,
      "byteOffset": 60288,
      "componentType": 5125,
      "count": 33600,
      "type": "SCALAR"
    }
  ],
  "asset": {
    "extras": {
      "author": "Anwar Ali (https://sketchfab.com/Anwarali)",
      "license": "CC-BY-4.0 (http://creativecommons.org/licenses/by/4.0/)",
      "source": "https://sketchfab.com/3d-models/free-model-old-rusty-frying-pan-1fdc84a7be2c4348b281490c89d76062",
      "title": "**FREE MODEL** Old Rusty Frying Pan"
    },
    "generator": "Sketchfab-12.65.0",
    "version": "2.0"
  },
  "bufferViews": [
    {
      "buffer": 0,
      "byteLength": 194688,
      "name": "floatBufferViews",
      "target": 34963
    },
    {
      "buffer": 0,
      "byteLength": 74168,
      "byteOffset": 194688,
      "byteStride": 8,
      "name": "floatBufferViews",
      "target": 34962
    },
    {
      "buffer": 0,
      "byteLength": 222504,
      "byteOffset": 268856,
      "byteStride": 12,
      "name": "floatBufferViews",
      "target": 34962
    },
    {
      "buffer": 0,
      "byteLength": 148336,
      "byteOffset": 491360,
      "byteStride": 16,
      "name": "floatBufferViews",
      "target": 34962
    }
  ],
  "buffers": [
    {
      "byteLength": 639696,
      "uri": "scene.bin"
    }
  ],
  "images": [
    {
      "uri": "textures/Scene_-_Root_baseColor.png"
    },
    {
      "uri": "textures/Scene_-_Root_metallicRoughness.png"
    },
    {
      "uri": "textures/Scene_-_Root_normal.png"
    }
  ],
  "materials": [
    {
      "doubleSided": true,
      "name": "Scene_-_Root",
      "normalTexture": {
        "index": 2
      },
      "pbrMetallicRoughness": {
        "baseColorTexture": {
          "index": 0
        },
        "metallicRoughnessTexture": {
          "index": 1
        }
      }
    }
  ],
  "meshes": [
    {
      "name": "Object_0",
      "primitives": [
        {
          "attributes": {
            "NORMAL": 1,
            "POSITION": 0,
            "TANGENT": 2,
            "TEXCOORD_0": 3
          },
          "indices": 4,
          "material": 0,
          "mode": 4
        }
      ]
    },
    {
      "name": "Object_1",
      "primitives": [
        {
          "attributes": {
            "NORMAL": 6,
            "POSITION": 5,
            "TANGENT": 7,
            "TEXCOORD_0": 8
          },
          "indices": 9,
          "material": 0,
          "mode": 4
        }
      ]
    },
    {
      "name": "Object_2",
      "primitives": [
        {
          "attributes": {
            "NORMAL": 11,
            "POSITION": 10,
            "TANGENT": 12,
            "TEXCOORD_0": 13
          },
          "indices": 14,
          "material": 0,
          "mode": 4
        }
      ]
    }
  ],
  "nodes": [
    {
      "children": [
        1
      ],
      "matrix": [
        1.0,
        0.0,
        0.0,
        0.0,
        0.0,
        2.220446049250313e-16,
        -1.0,
        0.0,
        0.0,
        1.0,
        2.220446049250313e-16,
        0.0,
        0.0,
        0.0,
        0.0,
        1.0
      ],
      "name": "Sketchfab_model"
    },
    {
      "children": [
        2,
        3,
        4
      ],
      "name": "rust pan.obj.cleaner.materialmerger.gles"
    },
    {
      "mesh": 0,
      "name": "Object_2"
    },
    {
      "mesh": 1,
      "name": "Object_3"
    },
    {
      "mesh": 2,
      "name": "Object_4"
    }
  ],
  "samplers": [
    {
      "magFilter": 9729,
      "minFilter": 9987,
      "wrapS": 10497,
      "wrapT": 10497
    }
  ],
  "scene": 0,
  "scenes": [
    {
      "name": "Sketchfab_Scene",
      "nodes": [
        0
      ]
    }
  ],
  "textures": [
    {
      "sampler": 0,
      "source": 0
    },
    {
      "sampler": 0,
      "source": 1
    },
    {
      "sampler": 0,
      "source": 2
    }
  ]
}
