{
  "accessors": [
    {
      "bufferView": 2,
      "componentType": 5126,
      "count": 65532,
      "max": [
        7.443284034729004,
        4.251058101654053,
        7.861752033233643
      ],
      "min": [
        0.6525619029998779,
        0.0,
        0.9547119140625
      ],
      "type": "VEC3"
    },
    {
      "bufferView": 2,
      "byteOffset": 786384,
      "componentType": 5126,
      "count": 65532,
      "max": [
        0.9994537830352783,
        0.999886155128479,
        0.9998841285705566
      ],
      "min": [
        -0.9999845027923584,
        -0.9999961853027344,
        -0.999174952507019
      ],
      "type": "VEC3"
    },
    {
      "bufferView": 1,
      "componentType": 5126,
      "count": 65532,
      "max": [
        0.9971789717674255,
        0.9996960163116455
      ],
      "min": [
        0.00253499997779727,
        0.002770999912172556
      ],
      "type": "VEC2"
    },
    {
      "bufferView": 0,
      "componentType": 5125,
      "count": 287964,
      "type": "SCALAR"
    },
    {
      "bufferView": 2,
      "byteOffset": 1572768,
      "componentType": 5126,
      "count": 65532,
      "max": [
        7.289989948272705,
        4.250557899475098,
        7.861752033233643
      ],
      "min": [
        0.0,
        0.032221078872680664,
        0.21454191207885742
      ],
      "type": "VEC3"
    },
    {
      "bufferView": 2,
      "byteOffset": 2359152,
      "componentType": 5126,
      "count": 65532,
      "max": [
        0.9999292492866516,
        0.9999901652336121,
        0.9999902844429016
      ],
      "min": [
        -0.999932050704956,
        -0.9998016357421875,
        -0.9989621043205261
      ],
      "type": "VEC3"
    },
    {
      "bufferView": 1,
      "byteOffset": 524256,
      "componentType": 5126,
      "count": 65532,
      "max": [
        0.9976130127906799,
        0.999701976776123
      ],
      "min": [
        0.00044800000614486635,
        0.00381799996830523
      ],
      "type": "VEC2"
    },
    {
      "bufferView": 0,
      "byteOffset": 1151856,
      "componentType": 5125,
      "count": 245523,
      "type": "SCALAR"
    },
    {
      "bufferView": 2,
      "byteOffset": 3145536,
      "componentType": 5126,
      "count": 65532,
      "max": [
        7.443116188049316,
        2.9017581939697266,
        7.584331035614014
      ],
      "min": [
        0.4017930030822754,
        0.33517611026763916,
        0.0
      ],
      "type": "VEC3"
    },
    {
      "bufferView": 2,
      "byteOffset": 3931920,
      "componentType": 5126,
      "count": 65532,
      "max": [
        0.9998689889907837,
        0.9995473623275757,
        0.9999144077301025
      ],
      "min": [
        -0.999219536781311,
        -0.9999914169311523,
        -0.999739408493042
      ],
      "type": "VEC3"
    },
    {
      "bufferView": 1,
      "byteOffset": 1048512,
      "componentType": 5126,
      "count": 65532,
      "max": [
        0.9986379742622375,
        1.000167965888977
      ],
      "min": [
        0.002107999986037612,
        0.002781999995931983
      ],
      "type": "VEC2"
    },
    {
      "bufferView": 0,
      "byteOffset": 2133948,
      "componentType": 5125,
      "count": 250440,
      "type": "SCALAR"
    },
    {
      "bufferView": 2,
      "byteOffset": 4718304,
      "componentType": 5126,
      "count": 30982,
      "max": [
        6.759861946105957,
        0.756817102432251,
        5.18603515625
      ],
      "min": [
        1.7479950189590454,
        0.26043403148651123,
        0.6616780757904053
      ],
      "type": "VEC3"
    },
    {
      "bufferView": 2,
      "byteOffset": 5090088,
      "componentType": 5126,
      "count": 30982,
      "max": [
        0.999430775642395,
        0.9990350604057312,
        0.9971368908882141
      ],
      "min": [
        -0.9994828104972839,
        -0.9999006986618042,
        -0.9994407892227173
      ],
      "type": "VEC3"
    },
    {
      "bufferView": 1,
      "byteOffset": 1572768,
      "componentType": 5126,
      "count": 30982,
      "max": [
        0.9976990222930908,
        0.9997429847717285
      ],
      "min": [
        0.002090000081807375,
        0.06739500164985657
      ],
      "type": "VEC2"
    },
    {
      "bufferView": 0,
      "byteOffset": 3135708,
      "componentType": 5125,
      "count": 114225,
      "type": "SCALAR"
    }
  ],
  "asset": {
    "extras": {
      "author": "jerryfisher (https://sketchfab.com/jerryfisher)",
      "license": "CC-BY-4.0 (http://creativecommons.org/licenses/by/4.0/)",
      "source": "https://sketchfab.com/3d-models/north-america-3d-map-d55c139774e54037a31048f99b9ce4bb",
      "title": "North America 3D map"
    },
    "generator": "Sketchfab-12.68.0",
    "version": "2.0"
  },
  "bufferViews": [
    {
      "buffer": 0,
      "byteLength": 3592608,
      "name": "floatBufferViews",
      "target": 34963
    },
    {
      "buffer": 0,
      "byteLength": 1820624,
      "byteOffset": 3592608,
      "byteStride": 8,
      "name": "floatBufferViews",
      "target": 34962
    },
    {
      "buffer": 0,
      "byteLength": 5461872,
      "byteOffset": 5413232,
      "byteStride": 12,
      "name": "floatBufferViews",
      "target": 34962
    }
  ],
  "buffers": [
    {
      "byteLength": 10875104,
      "uri": "scene.bin"
    }
  ],
  "images": [
    {
      "uri": "textures/material_0_baseColor.jpeg"
    }
  ],
  "materials": [
    {
      "doubleSided": true,
      "name": "material_0",
      "pbrMetallicRoughness": {
        "baseColorFactor": [
          0.67,
          0.67,
          0.67,
          1.0
        ],
        "baseColorTexture": {
          "index": 0
        },
        "metallicFactor": 0.0,
        "roughnessFactor": 0.6
      }
    }
  ],
  "meshes": [
    {
      "name": "Object_0",
      "primitives": [
        {
          "attributes": {
            "NORMAL": 1,
            "POSITION": 0,
            "TEXCOORD_0": 2
          },
          "indices": 3,
          "material": 0,
          "mode": 4
        }
      ]
    },
    {
      "name": "Object_1",
      "primitives": [
        {
          "attributes": {
            "NORMAL": 5,
            "POSITION": 4,
            "TEXCOORD_0": 6
          },
          "indices": 7,
          "material": 0,
          "mode": 4
        }
      ]
    },
    {
      "name": "Object_2",
      "primitives": [
        {
          "attributes": {
            "NORMAL": 9,
            "POSITION": 8,
            "TEXCOORD_0": 10
          },
          "indices": 11,
          "material": 0,
          "mode": 4
        }
      ]
    },
    {
      "name": "Object_3",
      "primitives": [
        {
          "attributes": {
            "NORMAL": 13,
            "POSITION": 12,
            "TEXCOORD_0": 14
          },
          "indices": 15,
          "material": 0,
          "mode": 4
        }
      ]
    }
  ],
  "nodes": [
    {
      "children": [
        1
      ],
      "matrix": [
        1.0,
        0.0,
        0.0,
        0.0,
        0.0,
        2.220446049250313e-16,
        -1.0,
        0.0,
        0.0,
        1.0,
        2.220446049250313e-16,
        0.0,
        0.0,
        0.0,
        0.0,
        1.0
      ],
      "name": "Sketchfab_model"
    },
    {
      "children": [
        2,
        3,
        4,
        5
      ],
      "matrix": [
        1.0,
        0.0,
        0.0,
        0.0,
        0.0,
        1.0,
        0.0,
        0.0,
        0.0,
        0.0,
        1.0,
        0.0,
        -3.721642017364502,
        -2.1255290508270264,
        -3.9308760166168213,
        1.0
      ],
      "name": "model.obj.cleaner.gles"
    },
    {
      "mesh": 0,
      "name": "Object_2"
    },
    {
      "mesh": 1,
      "name": "Object_3"
    },
    {
      "mesh": 2,
      "name": "Object_4"
    },
    {
      "mesh": 3,
      "name": "Object_5"
    }
  ],
  "samplers": [
    {
      "magFilter": 9729,
      "minFilter": 9987,
      "wrapS": 10497,
      "wrapT": 10497
    }
  ],
  "scene": 0,
  "scenes": [
    {
      "name": "Sketchfab_Scene",
      "nodes": [
        0
      ]
    }
  ],
  "textures": [
    {
      "sampler": 0,
      "source": 0
    }
  ]
}
