{
  "accessors": [
    {
      "bufferView": 2,
      "componentType": 5126,
      "count": 65532,
      "max": [
        1.26357102394104,
        2.945565938949585,
        5.372587203979492
      ],
      "min": [
        -1.2201030254364014,
        -3.2702369689941406,
        0.0050490000285208225
      ],
      "type": "VEC3"
    },
    {
      "bufferView": 2,
      "byteOffset": 786384,
      "componentType": 5126,
      "count": 65532,
      "max": [
        0.9999964237213135,
        0.9998008608818054,
        0.9999979734420776
      ],
      "min": [
        -1.0,
        -0.9999963045120239,
        -0.9999935626983643
      ],
      "type": "VEC3"
    },
    {
      "bufferView": 3,
      "componentType": 5126,
      "count": 65532,
      "max": [
        0.9999901056289673,
        0.999998927116394,
        0.9999967217445374,
        1.0
      ],
      "min": [
        -0.9999887347221375,
        -0.9999995231628418,
        -0.9999827742576599,
        -1.0
      ],
      "type": "VEC4"
    },
    {
      "bufferView": 1,
      "componentType": 5126,
      "count": 65532,
      "max": [
        0.9998810291290283,
        0.9998390078544617
      ],
      "min": [
        0.00030899999546818435,
        0.001914000022225082
      ],
      "type": "VEC2"
    },
    {
      "bufferView": 0,
      "componentType": 5125,
      "count": 315498,
      "type": "SCALAR"
    },
    {
      "bufferView": 2,
      "byteOffset": 1572768,
      "componentType": 5126,
      "count": 65532,
      "max": [
        1.2763190269470215,
        2.708303928375244,
        5.362112045288086
      ],
      "min": [
        -1.2048770189285278,
        -3.2259979248046875,
        0.009580000303685665
      ],
      "type": "VEC3"
    },
    {
      "bufferView": 2,
      "byteOffset": 2359152,
      "componentType": 5126,
      "count": 65532,
      "max": [
        1.0,
        0.999998927116394,
        0.9999995231628418
      ],
      "min": [
        -0.9999990463256836,
        -0.9999876022338867,
        -0.9999957084655762
      ],
      "type": "VEC3"
    },
    {
      "bufferView": 3,
      "byteOffset": 1048512,
      "componentType": 5126,
      "count": 65532,
      "max": [
        0.999982476234436,
        0.9999983906745911,
        0.9999181628227234,
        1.0
      ],
      "min": [
        -0.9999994039535522,
        -0.9999889135360718,
        -0.9999971985816956,
        -1.0
      ],
      "type": "VEC4"
    },
    {
      "bufferView": 1,
      "byteOffset": 524256,
      "componentType": 5126,
      "count": 65532,
      "max": [
        0.9998649954795837,
        0.9998300075531006
      ],
      "min": [
        0.0013569999719038606,
        0.004548000171780586
      ],
      "type": "VEC2"
    },
    {
      "bufferView": 0,
      "byteOffset": 1261992,
      "componentType": 5125,
      "count": 314508,
      "type": "SCALAR"
    },
    {
      "bufferView": 2,
      "byteOffset": 3145536,
      "componentType": 5126,
      "count": 65532,
      "max": [
        1.2707439661026,
        3.174298048019409,
        4.978982925415039
      ],
      "min": [
        -1.2068710327148438,
        -2.519921064376831,
        0.03522200137376785
      ],
      "type": "VEC3"
    },
    {
      "bufferView": 2,
      "byteOffset": 3931920,
      "componentType": 5126,
      "count": 65532,
      "max": [
        1.0,
        0.9999994039535522,
        0.9999998807907104
      ],
      "min": [
        -0.9999998807907104,
        -0.9999959468841553,
        -0.9999998807907104
      ],
      "type": "VEC3"
    },
    {
      "bufferView": 3,
      "byteOffset": 2097024,
      "componentType": 5126,
      "count": 65532,
      "max": [
        0.9999986290931702,
        0.9999781250953674,
        0.9999855160713196,
        1.0
      ],
      "min": [
        -0.999999463558197,
        -0.9999991655349731,
        -0.9999998807907104,
        -1.0
      ],
      "type": "VEC4"
    },
    {
      "bufferView": 1,
      "byteOffset": 1048512,
      "componentType": 5126,
      "count": 65532,
      "max": [
        0.9998649954795837,
        0.9998350143432617
      ],
      "min": [
        0.00481700012460351,
        0.003717999905347824
      ],
      "type": "VEC2"
    },
    {
      "bufferView": 0,
      "byteOffset": 2520024,
      "componentType": 5125,
      "count": 329604,
      "type": "SCALAR"
    },
    {
      "bufferView": 2,
      "byteOffset": 4718304,
      "componentType": 5126,
      "count": 65532,
      "max": [
        1.3222060203552246,
        3.3707680702209473,
        3.410862922668457
      ],
      "min": [
        -1.1931730508804321,
        -1.0597549676895142,
        0.005038000177592039
      ],
      "type": "VEC3"
    },
    {
      "bufferView": 2,
      "byteOffset": 5504688,
      "componentType": 5126,
      "count": 65532,
      "max": [
        0.9999985694885254,
        0.9999998807907104,
        0.9999998807907104
      ],
      "min": [
        -0.9999991655349731,
        -0.9999817609786987,
        -0.9999946355819702
      ],
      "type": "VEC3"
    },
    {
      "bufferView": 3,
      "byteOffset": 3145536,
      "componentType": 5126,
      "count": 65532,
      "max": [
        1.0,
        0.9999934434890747,
        0.9999863505363464,
        1.0
      ],
      "min": [
        -1.0,
        -0.9999828934669495,
        -0.9999988675117493,
        -1.0
      ],
      "type": "VEC4"
    },
    {
      "bufferView": 1,
      "byteOffset": 1572768,
      "componentType": 5126,
      "count": 65532,
      "max": [
        0.999875009059906,
        0.9998260140419006
      ],
      "min": [
        0.0005409999866969883,
        0.0003499999875202775
      ],
      "type": "VEC2"
    },
    {
      "bufferView": 0,
      "byteOffset": 3838440,
      "componentType": 5125,
      "count": 290400,
      "type": "SCALAR"
    },
    {
      "bufferView": 2,
      "byteOffset": 6291072,
      "componentType": 5126,
      "count": 21897,
      "max": [
        1.251147985458374,
        1.9420469999313354,
        4.754322052001953
      ],
      "min": [
        -1.1768560409545898,
        -1.79579496383667,
        0.33892300724983215
      ],
      "type": "VEC3"
    },
    {
      "bufferView": 2,
      "byteOffset": 6553836,
      "componentType": 5126,
      "count": 21897,
      "max": [
        0.9999973773956299,
        0.9999531507492065,
        1.0
      ],
      "min": [
        -0.9999992847442627,
        -0.9999805688858032,
        -0.9999998807907104
      ],
      "type": "VEC3"
    },
    {
      "bufferView": 3,
      "byteOffset": 4194048,
      "componentType": 5126,
      "count": 21897,
      "max": [
        1.0,
        0.9999492168426514,
        0.9999963045120239,
        1.0
      ],
      "min": [
        -1.0,
        -0.9997525811195374,
        -0.9999964237213135,
        -1.0
      ],
      "type": "VEC4"
    },
    {
      "bufferView": 1,
      "byteOffset": 2097024,
      "componentType": 5126,
      "count": 21897,
      "max": [
        0.9998440146446228,
        0.9998180270195007
      ],
      "min": [
        0.00014200000441633165,
        0.00019999999494757503
      ],
      "type": "VEC2"
    },
    {
      "bufferView": 0,
      "byteOffset": 5000040,
      "componentType": 5125,
      "count": 85362,
      "type": "SCALAR"
    }
  ],
  "asset": {
    "extras": {
      "author": "Lassi Kaukonen (https://sketchfab.com/thesidekick)",
      "license": "CC-BY-4.0 (http://creativecommons.org/licenses/by/4.0/)",
      "source": "https://sketchfab.com/3d-models/road-roller-arp-35-6a9b1acd83dd4463a2e839ba28ae1ded",
      "title": "Road Roller ARP 35"
    },
    "generator": "Sketchfab-12.68.0",
    "version": "2.0"
  },
  "bufferViews": [
    {
      "buffer": 0,
      "byteLength": 5341488,
      "name": "floatBufferViews",
      "target": 34963
    },
    {
      "buffer": 0,
      "byteLength": 2272200,
      "byteOffset": 5341488,
      "byteStride": 8,
      "name": "floatBufferViews",
      "target": 34962
    },
    {
      "buffer": 0,
      "byteLength": 6816600,
      "byteOffset": 7613688,
      "byteStride": 12,
      "name": "floatBufferViews",
      "target": 34962
    },
    {
      "buffer": 0,
      "byteLength": 4544400,
      "byteOffset": 14430288,
      "byteStride": 16,
      "name": "floatBufferViews",
      "target": 34962
    }
  ],
  "buffers": [
    {
      "byteLength": 18974688,
      "uri": "scene.bin"
    }
  ],
  "images": [
    {
      "uri": "textures/Road_roller_baseColor.jpeg"
    },
    {
      "uri": "textures/Road_roller_metallicRoughness.png"
    },
    {
      "uri": "textures/Road_roller_normal.png"
    }
  ],
  "materials": [
    {
      "doubleSided": true,
      "name": "Road_roller",
      "normalTexture": {
        "index": 2
      },
      "occlusionTexture": {
        "index": 1
      },
      "pbrMetallicRoughness": {
        "baseColorTexture": {
          "index": 0
        },
        "metallicFactor": 0.0,
        "metallicRoughnessTexture": {
          "index": 1
        }
      }
    }
  ],
  "meshes": [
    {
      "name": "Object_0",
      "primitives": [
        {
          "attributes": {
            "NORMAL": 1,
            "POSITION": 0,
            "TANGENT": 2,
            "TEXCOORD_0": 3
          },
          "indices": 4,
          "material": 0,
          "mode": 4
        }
      ]
    },
    {
      "name": "Object_1",
      "primitives": [
        {
          "attributes": {
            "NORMAL": 6,
            "POSITION": 5,
            "TANGENT": 7,
            "TEXCOORD_0": 8
          },
          "indices": 9,
          "material": 0,
          "mode": 4
        }
      ]
    },
    {
      "name": "Object_2",
      "primitives": [
        {
          "attributes": {
            "NORMAL": 11,
            "POSITION": 10,
            "TANGENT": 12,
            "TEXCOORD_0": 13
          },
          "indices": 14,
          "material": 0,
          "mode": 4
        }
      ]
    },
    {
      "name": "Object_3",
      "primitives": [
        {
          "attributes": {
            "NORMAL": 16,
            "POSITION": 15,
            "TANGENT": 17,
            "TEXCOORD_0": 18
          },
          "indices": 19,
          "material": 0,
          "mode": 4
        }
      ]
    },
    {
      "name": "Object_4",
      "primitives": [
        {
          "attributes": {
            "NORMAL": 21,
            "POSITION": 20,
            "TANGENT": 22,
            "TEXCOORD_0": 23
          },
          "indices": 24,
          "material": 0,
          "mode": 4
        }
      ]
    }
  ],
  "nodes": [
    {
      "children": [
        1
      ],
      "matrix": [
        1.0,
        0.0,
        0.0,
        0.0,
        0.0,
        2.220446049250313e-16,
        -1.0,
        0.0,
        0.0,
        1.0,
        2.220446049250313e-16,
        0.0,
        0.0,
        0.0,
        0.0,
        1.0
      ],
      "name": "Sketchfab_model"
    },
    {
      "children": [
        2,
        3,
        4,
        5,
        6
      ],
      "name": "Red_Road_roller_SF.obj.cleaner.materialmerger.gles"
    },
    {
      "mesh": 0,
      "name": "Object_2"
    },
    {
      "mesh": 1,
      "name": "Object_3"
    },
    {
      "mesh": 2,
      "name": "Object_4"
    },
    {
      "mesh": 3,
      "name": "Object_5"
    },
    {
      "mesh": 4,
      "name": "Object_6"
    }
  ],
  "samplers": [
    {
      "magFilter": 9729,
      "minFilter": 9987,
      "wrapS": 10497,
      "wrapT": 10497
    }
  ],
  "scene": 0,
  "scenes": [
    {
      "name": "Sketchfab_Scene",
      "nodes": [
        0
      ]
    }
  ],
  "textures": [
    {
      "sampler": 0,
      "source": 0
    },
    {
      "sampler": 0,
      "source": 1
    },
    {
      "sampler": 0,
      "source": 2
    }
  ]
}
