{
  "accessors": [
    {
      "bufferView": 2,
      "componentType": 5126,
      "count": 960,
      "max": [
        28266.541015625,
        33774.4921875,
        2258.2138671875
      ],
      "min": [
        -28266.37890625,
        -33774.66796875,
        -2258.1171875
      ],
      "type": "VEC3"
    },
    {
      "bufferView": 2,
      "byteOffset": 11520,
      "componentType": 5126,
      "count": 960,
      "max": [
        0.9999999403953552,
        1.0,
        3.2426125926576788e-06
      ],
      "min": [
        -1.0,
        -1.0,
        -7.855936928535812e-06
      ],
      "type": "VEC3"
    },
    {
      "bufferView": 1,
      "componentType": 5126,
      "count": 960,
      "max": [
        0.5750666856765747,
        3.58841872215271
      ],
      "min": [
        0.42493361234664917,
        -2.588416337966919
      ],
      "type": "VEC2"
    },
    {
      "bufferView": 0,
      "componentType": 5125,
      "count": 1440,
      "type": "SCALAR"
    },
    {
      "bufferView": 2,
      "byteOffset": 23040,
      "componentType": 5126,
      "count": 10170,
      "max": [
        28288.1796875,
        34161.5859375,
        -228.2119140625
      ],
      "min": [
        -28287.99609375,
        -34158.890625,
        -18616.87890625
      ],
      "type": "VEC3"
    },
    {
      "bufferView": 2,
      "byteOffset": 145080,
      "componentType": 5126,
      "count": 10170,
      "max": [
        1.0,
        1.0,
        1.0
      ],
      "min": [
        -1.0,
        -1.0,
        -1.0
      ],
      "type": "VEC3"
    },
    {
      "bufferView": 1,
      "byteOffset": 7680,
      "componentType": 5126,
      "count": 10170,
      "max": [
        9.72127914428711,
        11.129064559936523
      ],
      "min": [
        -8.722390174865723,
        -10.129067420959473
      ],
      "type": "VEC2"
    },
    {
      "bufferView": 0,
      "byteOffset": 5760,
      "componentType": 5125,
      "count": 12288,
      "type": "SCALAR"
    },
    {
      "bufferView": 2,
      "byteOffset": 267120,
      "componentType": 5126,
      "count": 640,
      "max": [
        27623.65625,
        33317.0625,
        -7837.41064453125
      ],
      "min": [
        -27623.46484375,
        -33314.36328125,
        -13979.650390625
      ],
      "type": "VEC3"
    },
    {
      "bufferView": 2,
      "byteOffset": 274800,
      "componentType": 5126,
      "count": 640,
      "max": [
        1.0,
        0.9999999403953552,
        7.588834250782384e-06
      ],
      "min": [
        -1.0,
        -0.9999999403953552,
        -1.0376653335697483e-05
      ],
      "type": "VEC3"
    },
    {
      "bufferView": 1,
      "byteOffset": 89040,
      "componentType": 5126,
      "count": 640,
      "max": [
        15.881390571594238,
        1.0
      ],
      "min": [
        -0.018610000610351563,
        5.960464477539063e-08
      ],
      "type": "VEC2"
    },
    {
      "bufferView": 0,
      "byteOffset": 54912,
      "componentType": 5125,
      "count": 960,
      "type": "SCALAR"
    },
    {
      "bufferView": 2,
      "byteOffset": 282480,
      "componentType": 5126,
      "count": 276,
      "max": [
        28802.240234375,
        1764.42041015625,
        -13925.0087890625
      ],
      "min": [
        27851.990234375,
        -1761.69287109375,
        -15448.53515625
      ],
      "type": "VEC3"
    },
    {
      "bufferView": 2,
      "byteOffset": 285792,
      "componentType": 5126,
      "count": 276,
      "max": [
        1.0,
        1.0,
        1.0
      ],
      "min": [
        -1.0,
        -1.0,
        -1.0
      ],
      "type": "VEC3"
    },
    {
      "bufferView": 1,
      "byteOffset": 94160,
      "componentType": 5126,
      "count": 276,
      "max": [
        1.1518664360046387,
        0.49859651923179626
      ],
      "min": [
        -0.15186673402786255,
        0.19597607851028442
      ],
      "type": "VEC2"
    },
    {
      "bufferView": 0,
      "byteOffset": 58752,
      "componentType": 5125,
      "count": 402,
      "type": "SCALAR"
    },
    {
      "bufferView": 2,
      "byteOffset": 289104,
      "componentType": 5126,
      "count": 730,
      "max": [
        24548.1328125,
        30273.267578125,
        -5476.92822265625
      ],
      "min": [
        -24548.171875,
        -30270.576171875,
        -17280.94921875
      ],
      "type": "VEC3"
    },
    {
      "bufferView": 2,
      "byteOffset": 297864,
      "componentType": 5126,
      "count": 730,
      "max": [
        0.580256998538971,
        0.583092987537384,
        1.0
      ],
      "min": [
        -0.580256462097168,
        -0.5830923914909363,
        0.8089669346809387
      ],
      "type": "VEC3"
    },
    {
      "bufferView": 1,
      "byteOffset": 96368,
      "componentType": 5126,
      "count": 730,
      "max": [
        40.772987365722656,
        7.3766679763793945
      ],
      "min": [
        19.349328994750977,
        0.6619868278503418
      ],
      "type": "VEC2"
    },
    {
      "bufferView": 0,
      "byteOffset": 60360,
      "componentType": 5125,
      "count": 2076,
      "type": "SCALAR"
    },
    {
      "bufferView": 2,
      "byteOffset": 306624,
      "componentType": 5126,
      "count": 6258,
      "max": [
        27101.21875,
        32880.90625,
        -4381.146484375
      ],
      "min": [
        -27101.265625,
        -32878.21875,
        -18444.68359375
      ],
      "type": "VEC3"
    },
    {
      "bufferView": 2,
      "byteOffset": 381720,
      "componentType": 5126,
      "count": 6258,
      "max": [
        1.0,
        1.0,
        1.0
      ],
      "min": [
        -1.0,
        -1.0,
        -1.0
      ],
      "type": "VEC3"
    },
    {
      "bufferView": 1,
      "byteOffset": 102208,
      "componentType": 5126,
      "count": 6258,
      "max": [
        40.77922058105469,
        7.999997615814209
      ],
      "min": [
        -4.511199951171875,
        -4.511200428009033
      ],
      "type": "VEC2"
    },
    {
      "bufferView": 0,
      "byteOffset": 68664,
      "componentType": 5125,
      "count": 12900,
      "type": "SCALAR"
    },
    {
      "bufferView": 2,
      "byteOffset": 456816,
      "componentType": 5126,
      "count": 21,
      "max": [
        11371.802734375,
        17143.55859375,
        -18444.68359375
      ],
      "min": [
        -11091.609375,
        -17193.86328125,
        -18444.68359375
      ],
      "type": "VEC3"
    },
    {
      "bufferView": 2,
      "byteOffset": 457068,
      "componentType": 5126,
      "count": 21,
      "max": [
        1.1634332395260572e-06,
        0.0,
        1.0
      ],
      "min": [
        -1.031585725286277e-06,
        0.0,
        1.0
      ],
      "type": "VEC3"
    },
    {
      "bufferView": 1,
      "byteOffset": 152272,
      "componentType": 5126,
      "count": 21,
      "max": [
        2.494999885559082,
        2.495000123977661
      ],
      "min": [
        -1.4950000047683716,
        -1.4950001239776611
      ],
      "type": "VEC2"
    },
    {
      "bufferView": 0,
      "byteOffset": 120264,
      "componentType": 5125,
      "count": 57,
      "type": "SCALAR"
    },
    {
      "bufferView": 2,
      "byteOffset": 457320,
      "componentType": 5126,
      "count": 1612,
      "max": [
        28147.267578125,
        33667.56640625,
        -258.2158203125
      ],
      "min": [
        -28147.08984375,
        -33664.890625,
        -18616.87890625
      ],
      "type": "VEC3"
    },
    {
      "bufferView": 2,
      "byteOffset": 476664,
      "componentType": 5126,
      "count": 1612,
      "max": [
        0.9999899864196777,
        0.9999896287918091,
        0.005245195236057043
      ],
      "min": [
        -0.9999887943267822,
        -0.9999897480010986,
        -6.6078282543458045e-06
      ],
      "type": "VEC3"
    },
    {
      "bufferView": 3,
      "componentType": 5126,
      "count": 1612,
      "max": [
        0.9999977946281433,
        1.0,
        7.883154466981068e-05,
        1.0
      ],
      "min": [
        -0.9999977350234985,
        -0.9999973773956299,
        -0.00010744569590315223,
        1.0
      ],
      "type": "VEC4"
    },
    {
      "bufferView": 1,
      "byteOffset": 152440,
      "componentType": 5126,
      "count": 1612,
      "max": [
        39.9508056640625,
        0.9956341981887817
      ],
      "min": [
        -0.24060964584350586,
        0.03409546613693237
      ],
      "type": "VEC2"
    },
    {
      "bufferView": 1,
      "byteOffset": 165336,
      "componentType": 5126,
      "count": 1612,
      "max": [
        39.9508056640625,
        0.9956341981887817
      ],
      "min": [
        -0.24060964584350586,
        0.03409546613693237
      ],
      "type": "VEC2"
    },
    {
      "bufferView": 1,
      "byteOffset": 178232,
      "componentType": 5126,
      "count": 1612,
      "max": [
        39.9508056640625,
        0.9956341981887817
      ],
      "min": [
        -0.24060964584350586,
        0.03409546613693237
      ],
      "type": "VEC2"
    },
    {
      "bufferView": 0,
      "byteOffset": 120492,
      "componentType": 5125,
      "count": 5280,
      "type": "SCALAR"
    }
  ],
  "asset": {
    "extras": {
      "author": "Carlos.Maciel (https://sketchfab.com/Carlos.Maciel)",
      "license": "CC-BY-4.0 (http://creativecommons.org/licenses/by/4.0/)",
      "source": "https://sketchfab.com/3d-models/colosseum-e749705838044be78ced42205f9f9dda",
      "title": "Colosseum"
    },
    "generator": "Sketchfab-13.3.0",
    "version": "2.0"
  },
  "bufferViews": [
    {
      "buffer": 0,
      "byteLength": 141612,
      "name": "floatBufferViews",
      "target": 34963
    },
    {
      "buffer": 0,
      "byteLength": 191128,
      "byteOffset": 141612,
      "byteStride": 8,
      "name": "floatBufferViews",
      "target": 34962
    },
    {
      "buffer": 0,
      "byteLength": 496008,
      "byteOffset": 332740,
      "byteStride": 12,
      "name": "floatBufferViews",
      "target": 34962
    },
    {
      "buffer": 0,
      "byteLength": 25792,
      "byteOffset": 828748,
      "byteStride": 16,
      "name": "floatBufferViews",
      "target": 34962
    }
  ],
  "buffers": [
    {
      "byteLength": 854540,
      "uri": "scene.bin"
    }
  ],
  "images": [
    {
      "uri": "textures/colbrown_baseColor.jpeg"
    },
    {
      "uri": "textures/colifloo_baseColor.jpeg"
    },
    {
      "uri": "textures/coliesta_baseColor.png"
    },
    {
      "uri": "textures/colistg2_baseColor.jpeg"
    },
    {
      "uri": "textures/coliston_baseColor.jpeg"
    },
    {
      "uri": "textures/coliston_metallicRoughness.png"
    },
    {
      "uri": "textures/coliston_normal.png"
    }
  ],
  "materials": [
    {
      "doubleSided": true,
      "name": "colbrown",
      "pbrMetallicRoughness": {
        "baseColorTexture": {
          "index": 0
        },
        "metallicFactor": 0.0,
        "roughnessFactor": 0.9898339735965157
      }
    },
    {
      "doubleSided": true,
      "name": "colifloo",
      "pbrMetallicRoughness": {
        "baseColorTexture": {
          "index": 1
        },
        "metallicFactor": 0.0,
        "roughnessFactor": 0.8417351997468292
      }
    },
    {
      "alphaMode": "BLEND",
      "doubleSided": true,
      "name": "coliesta",
      "pbrMetallicRoughness": {
        "baseColorTexture": {
          "index": 2
        },
        "metallicFactor": 0.0,
        "roughnessFactor": 0.9417266454649401
      }
    },
    {
      "doubleSided": true,
      "name": "colifron",
      "pbrMetallicRoughness": {
        "baseColorFactor": [
          0.458824,
          0.431373,
          0.403922,
          1.0
        ],
        "metallicFactor": 0.0,
        "roughnessFactor": 0.9079606699638108
      }
    },
    {
      "doubleSided": true,
      "name": "colistg2",
      "pbrMetallicRoughness": {
        "baseColorTexture": {
          "index": 3
        },
        "metallicFactor": 0.0,
        "roughnessFactor": 0.8417351997468292
      }
    },
    {
      "doubleSided": true,
      "name": "colistgr",
      "pbrMetallicRoughness": {
        "baseColorTexture": {
          "index": 1
        },
        "metallicFactor": 0.0,
        "roughnessFactor": 0.8417351997468292
      }
    },
    {
      "doubleSided": true,
      "name": "colisand",
      "pbrMetallicRoughness": {
        "baseColorFactor": [
          0.666667,
          0.54902,
          0.282353,
          1.0
        ],
        "metallicFactor": 0.0,
        "roughnessFactor": 0.8826786535521592
      }
    },
    {
      "doubleSided": true,
      "name": "coliston",
      "normalTexture": {
        "index": 6
      },
      "pbrMetallicRoughness": {
        "baseColorTexture": {
          "index": 4
        },
        "metallicRoughnessTexture": {
          "index": 5
        }
      }
    }
  ],
  "meshes": [
    {
      "name": "coliwo01_colbrown_0",
      "primitives": [
        {
          "attributes": {
            "NORMAL": 1,
            "POSITION": 0,
            "TEXCOORD_0": 2
          },
          "indices": 3,
          "material": 0,
          "mode": 4
        }
      ]
    },
    {
      "name": "coliwo01_colifloo_0",
      "primitives": [
        {
          "attributes": {
            "NORMAL": 5,
            "POSITION": 4,
            "TEXCOORD_0": 6
          },
          "indices": 7,
          "material": 1,
          "mode": 4
        }
      ]
    },
    {
      "name": "coliwo01_coliesta_0",
      "primitives": [
        {
          "attributes": {
            "NORMAL": 9,
            "POSITION": 8,
            "TEXCOORD_0": 10
          },
          "indices": 11,
          "material": 2,
          "mode": 4
        }
      ]
    },
    {
      "name": "coliwo01_colifron_0",
      "primitives": [
        {
          "attributes": {
            "NORMAL": 13,
            "POSITION": 12,
            "TEXCOORD_0": 14
          },
          "indices": 15,
          "material": 3,
          "mode": 4
        }
      ]
    },
    {
      "name": "coliwo01_colistg2_0",
      "primitives": [
        {
          "attributes": {
            "NORMAL": 17,
            "POSITION": 16,
            "TEXCOORD_0": 18
          },
          "indices": 19,
          "material": 4,
          "mode": 4
        }
      ]
    },
    {
      "name": "coliwo01_colistgr_0",
      "primitives": [
        {
          "attributes": {
            "NORMAL": 21,
            "POSITION": 20,
            "TEXCOORD_0": 22
          },
          "indices": 23,
          "material": 5,
          "mode": 4
        }
      ]
    },
    {
      "name": "coliwo01_colisand_0",
      "primitives": [
        {
          "attributes": {
            "NORMAL": 25,
            "POSITION": 24,
            "TEXCOORD_0": 26
          },
          "indices": 27,
          "material": 6,
          "mode": 4
        }
      ]
    },
    {
      "name": "coliwo01_coliston_0",
      "primitives": [
        {
          "attributes": {
            "NORMAL": 29,
            "POSITION": 28,
            "TANGENT": 30,
            "TEXCOORD_0": 31,
            "TEXCOORD_1": 32,
            "TEXCOORD_2": 33
          },
          "indices": 34,
          "material": 7,
          "mode": 4
        }
      ]
    }
  ],
  "nodes": [
    {
      "children": [
        1
      ],
      "matrix": [
        1.0,
        0.0,
        0.0,
        0.0,
        0.0,
        2.220446049250313e-16,
        -1.0,
        0.0,
        0.0,
        1.0,
        2.220446049250313e-16,
        0.0,
        0.0,
        0.0,
        0.0,
        1.0
      ],
      "name": "Sketchfab_model"
    },
    {
      "children": [
        2
      ],
      "matrix": [
        0.009999999776482582,
        0.0,
        0.0,
        0.0,
        0.0,
        0.0,
        0.009999999776482582,
        0.0,
        0.0,
        -0.009999999776482582,
        0.0,
        0.0,
        0.0,
        0.0,
        0.0,
        1.0
      ],
      "name": "af4247dddee746d281d21d349ef7b51f.fbx"
    },
    {
      "children": [
        3,
        12
      ],
      "name": "RootNode"
    },
    {
      "children": [
        4,
        5,
        6,
        7,
        8,
        9,
        10,
        11
      ],
      "matrix": [
        0.6675633788108826,
        0.0,
        0.0,
        0.0,
        -0.0,
        -1.087598792129755e-07,
        -0.6675633788108738,
        0.0,
        0.0,
        0.6675633788108738,
        -1.087598792129755e-07,
        0.0,
        -81367.734375,
        33370.30078125,
        -858.0673217773438,
        1.0
      ],
      "name": "coliwo01"
    },
    {
      "mesh": 0,
      "name": "coliwo01_colbrown_0"
    },
    {
      "mesh": 1,
      "name": "coliwo01_colifloo_0"
    },
    {
      "mesh": 2,
      "name": "coliwo01_coliesta_0"
    },
    {
      "mesh": 3,
      "name": "coliwo01_colifron_0"
    },
    {
      "mesh": 4,
      "name": "coliwo01_colistg2_0"
    },
    {
      "mesh": 5,
      "name": "coliwo01_colistgr_0"
    },
    {
      "mesh": 6,
      "name": "coliwo01_colisand_0"
    },
    {
      "mesh": 7,
      "name": "coliwo01_coliston_0"
    },
    {
      "children": [
        13
      ],
      "matrix": [
        100.0,
        0.0,
        0.0,
        0.0,
        0.0,
        99.99999999999972,
        -7.5497901264043296e-06,
        0.0,
        0.0,
        7.5497901264043296e-06,
        99.99999999999972,
        0.0,
        0.0,
        0.0,
        0.0,
        1.0
      ],
      "name": "Sun"
    },
    {
      "children": [
        14
      ],
      "matrix": [
        1.0,
        0.0,
        0.0,
        0.0,
        0.0,
        2.220446049250313e-16,
        1.0,
        0.0,
        0.0,
        -1.0,
        2.220446049250313e-16,
        0.0,
        0.0,
        0.0,
        0.0,
        1.0
      ],
      "name": "Object_13"
    },
    {
      "name": "Object_14"
    }
  ],
  "samplers": [
    {
      "magFilter": 9729,
      "minFilter": 9987,
      "wrapS": 10497,
      "wrapT": 10497
    }
  ],
  "scene": 0,
  "scenes": [
    {
      "name": "Sketchfab_Scene",
      "nodes": [
        0
      ]
    }
  ],
  "textures": [
    {
      "sampler": 0,
      "source": 0
    },
    {
      "sampler": 0,
      "source": 1
    },
    {
      "sampler": 0,
      "source": 2
    },
    {
      "sampler": 0,
      "source": 3
    },
    {
      "sampler": 0,
      "source": 4
    },
    {
      "sampler": 0,
      "source": 5
    },
    {
      "sampler": 0,
      "source": 6
    }
  ]
}
